<svg width="96" height="96" viewBox="0 0 96 96" xmlns="http://www.w3.org/2000/svg">
  <defs>
    <linearGradient id="bg" x1="0%" y1="0%" x2="100%" y2="100%">
      <stop offset="0%" style="stop-color:#0ea5e9"/>
      <stop offset="100%" style="stop-color:#0056CC"/>
    </linearGradient>
  </defs>
  <rect width="96" height="96" rx="18" fill="url(#bg)"/>
  <!-- Hourglass icon -->
  <g transform="translate(28, 18)" fill="white">
    <path d="M0 0h40v12c0 8-8 14-20 20 12 6 20 12 20 20v12H0V52c0-8 8-14 20-20C8 26 0 20 0 12V0z" fill="none" stroke="white" stroke-width="4"/>
    <path d="M8 8h24v4c0 4-4 8-12 12-8-4-12-8-12-12V8z" opacity="0.6"/>
    <path d="M8 52h24v4H8z" opacity="0.6"/>
  </g>
</svg>
